<svg xmlns="http://www.w3.org/2000/svg" xmlns:xlink="http://www.w3.org/1999/xlink" viewBox="0 0 346.46 101.03"><defs><style>.cls-1{fill:#fe9a56;}.cls-2{fill:url(#未命名的渐变_11);}.cls-3{fill:url(#未命名的渐变_11-11);}</style><linearGradient id="未命名的渐变_11" y1="50.52" x2="346.46" y2="50.52" gradientUnits="userSpaceOnUse"><stop offset="0.16" stop-color="#a1aaee"/><stop offset="0.23" stop-color="#88abe8"/><stop offset="0.31" stop-color="#75ace4"/><stop offset="0.39" stop-color="#6aade2"/><stop offset="0.47" stop-color="#66ade1"/><stop offset="0.55" stop-color="#4cb3d9"/><stop offset="0.63" stop-color="#36b8d2"/><stop offset="0.72" stop-color="#29bbce"/><stop offset="0.8" stop-color="#25bccd"/><stop offset="0.98" stop-color="#25bccd"/></linearGradient><linearGradient id="未命名的渐变_11-11" y1="50.52" x2="346.46" y2="50.52" gradientTransform="translate(4.24 -2.12) rotate(13.28)" xlink:href="#未命名的渐变_11"/></defs><g id="图层_2" data-name="图层 2"><g id="图层_1-2" data-name="图层 1"><path class="cls-1" d="M196.67,31.37a3.63,3.63,0,0,0-7.06.16,16,16,0,0,0-.31,3.17c0,6.76,0,13.52,0,20.29,0,.58-.07,1.17-.13,2.19-.61-.86-.93-1.29-1.22-1.73q-7.63-11.58-15.26-23.18c-2.12-3.23-3.89-4.16-6.5-3.36-2.33.71-3.33,2.54-3.33,6.21q0,15.12,0,30.24a11.71,11.71,0,0,0,.18,2.3,3.71,3.71,0,0,0,7.36-.12,18.77,18.77,0,0,0,.25-3.18c0-6.41,0-12.81,0-19.22V43.29l.43-.12c.36.51.73,1,1.07,1.53q6.66,10.19,13.34,20.39a35.87,35.87,0,0,0,2.86,3.85,5.15,5.15,0,0,0,5.8,1.6c2.1-.66,2.57-2.45,2.81-4.34a12.23,12.23,0,0,0,.06-1.6q0-15.12,0-30.24A12,12,0,0,0,196.67,31.37Z"/><path class="cls-1" d="M153.7,63.73a20,20,0,0,0-3.37-.26c-5,0-10.08,0-15.12,0-1.34,0-2-.41-1.91-1.84.08-2.6.08-5.22,0-7.82,0-1.39.45-1.87,1.85-1.85,4.69.07,9.37,0,14.06,0a11.24,11.24,0,0,0,2.47-.19,2.79,2.79,0,0,0,2.37-3.08,2.7,2.7,0,0,0-2.48-2.79,18.78,18.78,0,0,0-3.18-.26c-4.21,0-8.42,0-12.63,0-2.43,0-2.43,0-2.44-2.5,0-1.72.11-3.45,0-5.16s.5-2.36,2.31-2.33c5.51.09,11,0,16.54,0,2.24,0,3.48-1.14,3.59-2.93s-1-3.08-3.24-3.25c-2.47-.2-5-.19-7.46-.19-5.21,0-10.44-.05-15.65.17-3.06.13-4.2,1.29-4.29,4.34-.17,5.33,0,10.67,0,16h-.14c0,4.86-.07,9.73,0,14.59.09,4.58,1.37,5.76,6,5.77q10.32,0,20.64,0a11,11,0,0,0,2.29-.2,3.15,3.15,0,0,0-.1-6.21Z"/><path class="cls-1" d="M235.15,63.79a13.66,13.66,0,0,0-3-.23c-5.34,0-10.68,0-16,.06-1.21,0-1.7-.44-1.68-1.67.06-2.73.08-5.46,0-8.18-.05-1.44.54-1.83,1.89-1.81,4.68,0,9.37,0,14.05,0a10.66,10.66,0,0,0,2.47-.21,2.79,2.79,0,0,0,2.34-3.1,2.71,2.71,0,0,0-2.52-2.75,21.23,21.23,0,0,0-3.19-.26c-4.39,0-8.77,0-13.16,0-1.37,0-1.93-.46-1.88-1.86.07-2.19,0-4.39,0-6.58,0-1.17.48-1.58,1.6-1.56,1.77,0,3.55,0,5.33,0,4.1,0,8.19,0,12.28-.08A3,3,0,1,0,234,29.5a38.4,38.4,0,0,0-4.79-.22c-6.23,0-12.45,0-18.67.19-3,.1-4.14,1.23-4.23,4.19-.17,5.33-.05,10.67-.05,16h-.07c0,5.16-.14,10.32,0,15.48.13,3.85,1.51,5,5.37,5q10.68,0,21.35,0a8.76,8.76,0,0,0,2.45-.31,2.89,2.89,0,0,0,2.18-3.09A2.93,2.93,0,0,0,235.15,63.79Z"/><path class="cls-1" d="M339.75,47.69c-2.07-.86-4.24-1.5-6.38-2.19-2.65-.84-5.35-1.54-8-2.46a3.87,3.87,0,0,1-2.86-3.7c0-1.94,1.26-3.13,2.9-3.93a8.46,8.46,0,0,1,11.35,3.36c.34.56.66,1.13,1,1.67,1.19,1.82,2.64,2.42,4.36,1.82a3.65,3.65,0,0,0,2.36-4.13,12.23,12.23,0,0,0-2.25-4.87c-3.15-3.73-7.58-4.57-12.22-4.67-1.18.08-2.37.09-3.54.25a15,15,0,0,0-8.92,4,10.41,10.41,0,0,0,3.76,16.92c3,1.29,6.33,1.94,9.47,3a24.22,24.22,0,0,1,5.23,2.13,4.75,4.75,0,0,1,1,7c-3,3.78-11.8,4-14.28-.86-.59-1.16-1.13-2.35-1.75-3.5-1.06-2-2.57-2.71-4.34-2.19-1.95.57-2.89,2.14-2.63,4.45a11,11,0,0,0,4.3,7.33c6,5,17.24,5,23.49.35C347.91,62.93,348.75,51.45,339.75,47.69Z"/><path class="cls-1" d="M307.57,62Q302.78,50.13,298,38.27c-.89-2.19-1.78-4.39-2.8-6.52-1.14-2.36-3.18-3.22-5.72-3.07-3.09.18-4.5,2.28-5.51,4.83-3.1,7.88-6.22,15.76-9.3,23.65-1.14,2.92-2.31,5.84-3.21,8.83a3.6,3.6,0,0,0,2.49,4.63,3.56,3.56,0,0,0,4.65-2.12,34.22,34.22,0,0,0,2.16-5.44c.56-2.12,1.72-2.81,3.82-2.61,1.76.17,3.55,0,5.33,0,2.19,0,4.39.07,6.58,0a2.16,2.16,0,0,1,2.47,1.68,58.56,58.56,0,0,0,2.64,6.4,3.7,3.7,0,0,0,4.72,2.1,3.87,3.87,0,0,0,2.6-4.79A26.58,26.58,0,0,0,307.57,62ZM284,53.94l5.67-15.82h.43c1.89,5.19,3.79,10.38,5.77,15.81Z"/><path class="cls-1" d="M266.77,46.24a18.87,18.87,0,0,0-2.13-.08c-3.5,0-7,0-10.49,0-1.4,0-1.9-.49-1.85-1.87.07-2.13.1-4.28,0-6.4-.09-1.69.47-2.3,2.2-2.26,4.69.1,9.37.07,14.06,0,2.51,0,3.82-1.06,4-2.93s-1.14-3.08-3.72-3.41a4.52,4.52,0,0,0-.53-.06c-6.28,0-12.57-.1-18.85.06-4.13.09-5.33,1.51-5.35,5.64,0,5,0,10.08,0,15.12h0c0,5.1,0,10.2,0,15.3a8.68,8.68,0,0,0,.53,3.12,3.9,3.9,0,0,0,6.47,1.1A6.33,6.33,0,0,0,252.26,66c.15-3.91.11-7.83,0-11.74,0-1.45.4-2,1.91-2,3.08.1,6.16,0,9.25,0a29.12,29.12,0,0,0,3.37-.09,3,3,0,0,0,2.87-3.06A3,3,0,0,0,266.77,46.24Z"/><path class="cls-1" d="M23.72,12.94c.38-.21.74-.47,1.14-.65,1.17-.53,2.34-1,3.54-1.54h0A43,43,0,0,1,50.77,8.05,42.27,42.27,0,0,1,76.05,21.93a43.22,43.22,0,0,1,4.31,6.15,37.49,37.49,0,0,1,2.51,5.37,27.21,27.21,0,0,1,1.26,4.36C85.63,45,85.61,52.47,82.7,59.3a38.33,38.33,0,0,1-5.54,9.17,32,32,0,0,1-5,4.83,30.56,30.56,0,0,1-16.39,6.49,27.85,27.85,0,0,1-16.37-3.48A25.09,25.09,0,0,1,29.09,65.94a23.67,23.67,0,0,1-2.85-10.56,21.43,21.43,0,0,1,1.57-8.54,19.41,19.41,0,0,1,3.32-5.63,18.33,18.33,0,0,1,10-6.09,14.76,14.76,0,0,1,11.74,2.06,11.16,11.16,0,0,1,5,6.64c.69,2.88.28,6.37-2.07,8.39A6.43,6.43,0,0,1,53,53.6a4.73,4.73,0,0,0-2.55,1,3.86,3.86,0,0,0-1,3.38,3.62,3.62,0,0,0,3.58,3.11,10.27,10.27,0,0,0,5.71-1.54,13.34,13.34,0,0,0,2.37-1.8,15.62,15.62,0,0,0,4.53-8.87,15.07,15.07,0,0,0-.18-5.56,20.33,20.33,0,0,0-8.56-12.8,22.1,22.1,0,0,0-12.65-3.4,25.88,25.88,0,0,0-19.67,10,28.2,28.2,0,0,0-6.05,17,31.54,31.54,0,0,0,1.22,9.35,30.34,30.34,0,0,0,3.36,7.66,30.09,30.09,0,0,0,9.25,9.77C34.09,82,35.79,83.12,37.59,84a32.51,32.51,0,0,0,9.8,3.11,37.6,37.6,0,0,0,13.34-.28,39.06,39.06,0,0,0,10.05-3.54,38.45,38.45,0,0,0,9.77-7A43,43,0,0,0,92.92,46.39a40.3,40.3,0,0,0-1.06-9.48C88.51,22.28,78.57,11.27,65.43,4.56A43.74,43.74,0,0,0,54.84,1C53.78.77,52.74.57,51.67.43A54.46,54.46,0,0,0,20.2,6.05a3.87,3.87,0,1,0,3.52,6.89Z"/><path class="cls-1" d="M86.64,84.68A3.89,3.89,0,0,0,81.09,83a14.12,14.12,0,0,0-1.92,1.35,35.86,35.86,0,0,1-7.46,4.54,64.14,64.14,0,0,1-7.43,2.83,41,41,0,0,1-7.21,1.38,45,45,0,0,1-7.52.16,42.22,42.22,0,0,1-9.78-1.91,38.15,38.15,0,0,1-8.22-3.61,36.81,36.81,0,0,1-8.15-6.3A40.84,40.84,0,0,1,18,74.77a39.82,39.82,0,0,1-4.33-9.53A37.51,37.51,0,0,1,12.1,54.63a34.27,34.27,0,0,1,1.74-10.85,37.44,37.44,0,0,1,3.87-8.13,25.27,25.27,0,0,1,5.67-6.51,56.62,56.62,0,0,1,6.77-4.63,37.66,37.66,0,0,1,5.27-2.06,23.33,23.33,0,0,1,8.52-1.38,27.93,27.93,0,0,1,11.32,2.34A21.33,21.33,0,0,1,61,26.87c1.2,1.06,2.46,2.06,3.73,3.05a3.78,3.78,0,0,0,3.83.12c2.06-1.4,2.58-3.45,1.11-5.51a20.61,20.61,0,0,0-6.06-5.36,38,38,0,0,0-28.94-4.6A36.35,36.35,0,0,0,26,18a39,39,0,0,0-11.39,9.16,40.21,40.21,0,0,0-6.23,9.7A43.23,43.23,0,0,0,6,43.77a48.19,48.19,0,0,0-1.43,8.17c-1,14.37,5.58,28.59,16.51,37.82a48.27,48.27,0,0,0,18,9.46A49.23,49.23,0,0,0,52.89,101,52.34,52.34,0,0,0,81.8,92C84.09,90.39,88.23,88.14,86.64,84.68Z"/><path class="cls-1" d="M58.1,65.68A15.89,15.89,0,0,1,44.74,64c-1.25-.8-2.27-1.75-3.87-1.59a4.12,4.12,0,0,0-3.14,2.18c-.92,1.63,0,3.43,1.24,4.51a20.47,20.47,0,0,0,4.29,2.84,21.27,21.27,0,0,0,9.67,2.13A26.16,26.16,0,0,0,65.25,70.8a25.47,25.47,0,0,0,7.88-7A26.72,26.72,0,0,0,77.83,54a4,4,0,0,0-1.74-4.12A3.89,3.89,0,0,0,70.52,52a25.14,25.14,0,0,1-3.2,6.67A18.09,18.09,0,0,1,58.1,65.68Z"/><path class="cls-1" d="M92.89,80c2.38,0,3.78-1.5,3.76-4a3.7,3.7,0,0,0-3.89-3.63A3.77,3.77,0,0,0,89,76.29C89.1,78.36,90.25,80.2,92.89,80Z"/><circle class="cls-1" cx="11.22" cy="17.16" r="3.75" transform="translate(-3.64 3.04) rotate(-13.28)"/><circle class="cls-1" cx="38.08" cy="52.01" r="4.86"/><circle class="cls-1" cx="74.13" cy="38.7" r="4.86"/><circle class="cls-1" cx="2.59" cy="27.26" r="2.59"/><path class="cls-2" d="M196.67,31.37a3.63,3.63,0,0,0-7.06.16,16,16,0,0,0-.31,3.17c0,6.76,0,13.52,0,20.29,0,.58-.07,1.17-.13,2.19-.61-.86-.93-1.29-1.22-1.73q-7.63-11.58-15.26-23.18c-2.12-3.23-3.89-4.16-6.5-3.36-2.33.71-3.33,2.54-3.33,6.21q0,15.12,0,30.24a11.71,11.71,0,0,0,.18,2.3,3.71,3.71,0,0,0,7.36-.12,18.77,18.77,0,0,0,.25-3.18c0-6.41,0-12.81,0-19.22V43.29l.43-.12c.36.51.73,1,1.07,1.53q6.66,10.19,13.34,20.39a35.87,35.87,0,0,0,2.86,3.85,5.15,5.15,0,0,0,5.8,1.6c2.1-.66,2.57-2.45,2.81-4.34a12.23,12.23,0,0,0,.06-1.6q0-15.12,0-30.24A12,12,0,0,0,196.67,31.37Z"/><path class="cls-2" d="M153.7,63.73a20,20,0,0,0-3.37-.26c-5,0-10.08,0-15.12,0-1.34,0-2-.41-1.91-1.84.08-2.6.08-5.22,0-7.82,0-1.39.45-1.87,1.85-1.85,4.69.07,9.37,0,14.06,0a11.24,11.24,0,0,0,2.47-.19,2.79,2.79,0,0,0,2.37-3.08,2.7,2.7,0,0,0-2.48-2.79,18.78,18.78,0,0,0-3.18-.26c-4.21,0-8.42,0-12.63,0-2.43,0-2.43,0-2.44-2.5,0-1.72.11-3.45,0-5.16s.5-2.36,2.31-2.33c5.51.09,11,0,16.54,0,2.24,0,3.48-1.14,3.59-2.93s-1-3.08-3.24-3.25c-2.47-.2-5-.19-7.46-.19-5.21,0-10.44-.05-15.65.17-3.06.13-4.2,1.29-4.29,4.34-.17,5.33,0,10.67,0,16h-.14c0,4.86-.07,9.73,0,14.59.09,4.58,1.37,5.76,6,5.77q10.32,0,20.64,0a11,11,0,0,0,2.29-.2,3.15,3.15,0,0,0-.1-6.21Z"/><path class="cls-2" d="M235.15,63.79a13.66,13.66,0,0,0-3-.23c-5.34,0-10.68,0-16,.06-1.21,0-1.7-.44-1.68-1.67.06-2.73.08-5.46,0-8.18-.05-1.44.54-1.83,1.89-1.81,4.68,0,9.37,0,14.05,0a10.66,10.66,0,0,0,2.47-.21,2.79,2.79,0,0,0,2.34-3.1,2.71,2.71,0,0,0-2.52-2.75,21.23,21.23,0,0,0-3.19-.26c-4.39,0-8.77,0-13.16,0-1.37,0-1.93-.46-1.88-1.86.07-2.19,0-4.39,0-6.58,0-1.17.48-1.58,1.6-1.56,1.77,0,3.55,0,5.33,0,4.1,0,8.19,0,12.28-.08A3,3,0,1,0,234,29.5a38.4,38.4,0,0,0-4.79-.22c-6.23,0-12.45,0-18.67.19-3,.1-4.14,1.23-4.23,4.19-.17,5.33-.05,10.67-.05,16h-.07c0,5.16-.14,10.32,0,15.48.13,3.85,1.51,5,5.37,5q10.68,0,21.35,0a8.76,8.76,0,0,0,2.45-.31,2.89,2.89,0,0,0,2.18-3.09A2.93,2.93,0,0,0,235.15,63.79Z"/><path class="cls-2" d="M339.75,47.69c-2.07-.86-4.24-1.5-6.38-2.19-2.65-.84-5.35-1.54-8-2.46a3.87,3.87,0,0,1-2.86-3.7c0-1.94,1.26-3.13,2.9-3.93a8.46,8.46,0,0,1,11.35,3.36c.34.56.66,1.13,1,1.67,1.19,1.82,2.64,2.42,4.36,1.82a3.65,3.65,0,0,0,2.36-4.13,12.23,12.23,0,0,0-2.25-4.87c-3.15-3.73-7.58-4.57-12.22-4.67-1.18.08-2.37.09-3.54.25a15,15,0,0,0-8.92,4,10.41,10.41,0,0,0,3.76,16.92c3,1.29,6.33,1.94,9.47,3a24.22,24.22,0,0,1,5.23,2.13,4.75,4.75,0,0,1,1,7c-3,3.78-11.8,4-14.28-.86-.59-1.16-1.13-2.35-1.75-3.5-1.06-2-2.57-2.71-4.34-2.19-1.95.57-2.89,2.14-2.63,4.45a11,11,0,0,0,4.3,7.33c6,5,17.24,5,23.49.35C347.91,62.93,348.75,51.45,339.75,47.69Z"/><path class="cls-2" d="M307.57,62Q302.78,50.13,298,38.27c-.89-2.19-1.78-4.39-2.8-6.52-1.14-2.36-3.18-3.22-5.72-3.07-3.09.18-4.5,2.28-5.51,4.83-3.1,7.88-6.22,15.76-9.3,23.65-1.14,2.92-2.31,5.84-3.21,8.83a3.6,3.6,0,0,0,2.49,4.63,3.56,3.56,0,0,0,4.65-2.12,34.22,34.22,0,0,0,2.16-5.44c.56-2.12,1.72-2.81,3.82-2.61,1.76.17,3.55,0,5.33,0,2.19,0,4.39.07,6.58,0a2.16,2.16,0,0,1,2.47,1.68,58.56,58.56,0,0,0,2.64,6.4,3.7,3.7,0,0,0,4.72,2.1,3.87,3.87,0,0,0,2.6-4.79A26.58,26.58,0,0,0,307.57,62ZM284,53.94l5.67-15.82h.43c1.89,5.19,3.79,10.38,5.77,15.81Z"/><path class="cls-2" d="M266.77,46.24a18.87,18.87,0,0,0-2.13-.08c-3.5,0-7,0-10.49,0-1.4,0-1.9-.49-1.85-1.87.07-2.13.1-4.28,0-6.4-.09-1.69.47-2.3,2.2-2.26,4.69.1,9.37.07,14.06,0,2.51,0,3.82-1.06,4-2.93s-1.14-3.08-3.72-3.41a4.52,4.52,0,0,0-.53-.06c-6.28,0-12.57-.1-18.85.06-4.13.09-5.33,1.51-5.35,5.64,0,5,0,10.08,0,15.12h0c0,5.1,0,10.2,0,15.3a8.68,8.68,0,0,0,.53,3.12,3.9,3.9,0,0,0,6.47,1.1A6.33,6.33,0,0,0,252.26,66c.15-3.91.11-7.83,0-11.74,0-1.45.4-2,1.91-2,3.08.1,6.16,0,9.25,0a29.12,29.12,0,0,0,3.37-.09,3,3,0,0,0,2.87-3.06A3,3,0,0,0,266.77,46.24Z"/><path class="cls-2" d="M23.72,12.94c.38-.21.74-.47,1.14-.65,1.17-.53,2.34-1,3.54-1.54h0A43,43,0,0,1,50.77,8.05,42.27,42.27,0,0,1,76.05,21.93a43.22,43.22,0,0,1,4.31,6.15,37.49,37.49,0,0,1,2.51,5.37,27.21,27.21,0,0,1,1.26,4.36C85.63,45,85.61,52.47,82.7,59.3a38.33,38.33,0,0,1-5.54,9.17,32,32,0,0,1-5,4.83,30.56,30.56,0,0,1-16.39,6.49,27.85,27.85,0,0,1-16.37-3.48A25.09,25.09,0,0,1,29.09,65.94a23.67,23.67,0,0,1-2.85-10.56,21.43,21.43,0,0,1,1.57-8.54,19.41,19.41,0,0,1,3.32-5.63,18.33,18.33,0,0,1,10-6.09,14.76,14.76,0,0,1,11.74,2.06,11.16,11.16,0,0,1,5,6.64c.69,2.88.28,6.37-2.07,8.39A6.43,6.43,0,0,1,53,53.6a4.73,4.73,0,0,0-2.55,1,3.86,3.86,0,0,0-1,3.38,3.62,3.62,0,0,0,3.58,3.11,10.27,10.27,0,0,0,5.71-1.54,13.34,13.34,0,0,0,2.37-1.8,15.62,15.62,0,0,0,4.53-8.87,15.07,15.07,0,0,0-.18-5.56,20.33,20.33,0,0,0-8.56-12.8,22.1,22.1,0,0,0-12.65-3.4,25.88,25.88,0,0,0-19.67,10,28.2,28.2,0,0,0-6.05,17,31.54,31.54,0,0,0,1.22,9.35,30.34,30.34,0,0,0,3.36,7.66,30.09,30.09,0,0,0,9.25,9.77C34.09,82,35.79,83.12,37.59,84a32.51,32.51,0,0,0,9.8,3.11,37.6,37.6,0,0,0,13.34-.28,39.06,39.06,0,0,0,10.05-3.54,38.45,38.45,0,0,0,9.77-7A43,43,0,0,0,92.92,46.39a40.3,40.3,0,0,0-1.06-9.48C88.51,22.28,78.57,11.27,65.43,4.56A43.74,43.74,0,0,0,54.84,1C53.78.77,52.74.57,51.67.43A54.46,54.46,0,0,0,20.2,6.05a3.87,3.87,0,1,0,3.52,6.89Z"/><path class="cls-2" d="M86.64,84.68A3.89,3.89,0,0,0,81.09,83a14.12,14.12,0,0,0-1.92,1.35,35.86,35.86,0,0,1-7.46,4.54,64.14,64.14,0,0,1-7.43,2.83,41,41,0,0,1-7.21,1.38,45,45,0,0,1-7.52.16,42.22,42.22,0,0,1-9.78-1.91,38.15,38.15,0,0,1-8.22-3.61,36.81,36.81,0,0,1-8.15-6.3A40.84,40.84,0,0,1,18,74.77a39.82,39.82,0,0,1-4.33-9.53A37.51,37.51,0,0,1,12.1,54.63a34.27,34.27,0,0,1,1.74-10.85,37.44,37.44,0,0,1,3.87-8.13,25.27,25.27,0,0,1,5.67-6.51,56.62,56.62,0,0,1,6.77-4.63,37.66,37.66,0,0,1,5.27-2.06,23.33,23.33,0,0,1,8.52-1.38,27.93,27.93,0,0,1,11.32,2.34A21.33,21.33,0,0,1,61,26.87c1.2,1.06,2.46,2.06,3.73,3.05a3.78,3.78,0,0,0,3.83.12c2.06-1.4,2.58-3.45,1.11-5.51a20.61,20.61,0,0,0-6.06-5.36,38,38,0,0,0-28.94-4.6A36.35,36.35,0,0,0,26,18a39,39,0,0,0-11.39,9.16,40.21,40.21,0,0,0-6.23,9.7A43.23,43.23,0,0,0,6,43.77a48.19,48.19,0,0,0-1.43,8.17c-1,14.37,5.58,28.59,16.51,37.82a48.27,48.27,0,0,0,18,9.46A49.23,49.23,0,0,0,52.89,101,52.34,52.34,0,0,0,81.8,92C84.09,90.39,88.23,88.14,86.64,84.68Z"/><path class="cls-2" d="M58.1,65.68A15.89,15.89,0,0,1,44.74,64c-1.25-.8-2.27-1.75-3.87-1.59a4.12,4.12,0,0,0-3.14,2.18c-.92,1.63,0,3.43,1.24,4.51a20.47,20.47,0,0,0,4.29,2.84,21.27,21.27,0,0,0,9.67,2.13A26.16,26.16,0,0,0,65.25,70.8a25.47,25.47,0,0,0,7.88-7A26.72,26.72,0,0,0,77.83,54a4,4,0,0,0-1.74-4.12A3.89,3.89,0,0,0,70.52,52a25.14,25.14,0,0,1-3.2,6.67A18.09,18.09,0,0,1,58.1,65.68Z"/><path class="cls-2" d="M92.89,80c2.38,0,3.78-1.5,3.76-4a3.7,3.7,0,0,0-3.89-3.63A3.77,3.77,0,0,0,89,76.29C89.1,78.36,90.25,80.2,92.89,80Z"/><circle class="cls-3" cx="11.22" cy="17.16" r="3.75" transform="translate(-3.64 3.04) rotate(-13.28)"/><circle class="cls-2" cx="38.08" cy="52.01" r="4.86"/><circle class="cls-2" cx="74.13" cy="38.7" r="4.86"/><circle class="cls-2" cx="2.59" cy="27.26" r="2.59"/></g></g></svg>